<?xml version="1.0" standalone="no"?>
<!DOCTYPE svg PUBLIC "-//W3C//DTD SVG 20010904//EN"
 "http://www.w3.org/TR/2001/REC-SVG-20010904/DTD/svg10.dtd">
<svg version="1.0" xmlns="http://www.w3.org/2000/svg"
 width="32.000000pt" height="32.000000pt" viewBox="0 0 32.000000 32.000000"
 preserveAspectRatio="xMidYMid meet">
<metadata>
Created by potrace 1.16, written by Peter Selinger 2001-2019
</metadata>
<g transform="translate(0.000000,32.000000) scale(0.100000,-0.100000)"
fill="#000000" stroke="none">
<path d="M148 305 c-5 -6 -28 -12 -50 -14 -5 -1 -8 -9 -8 -18 1 -16 2 -16 13
-3 38 47 136 17 138 -42 0 -13 3 -17 6 -10 2 6 9 12 14 12 6 0 8 -4 4 -9 -3
-5 -1 -12 4 -15 5 -3 7 -15 4 -26 -4 -14 -10 -17 -22 -11 -9 5 -22 6 -30 3
-10 -3 -12 0 -8 11 4 10 0 20 -10 25 -10 6 -14 16 -10 26 4 11 3 15 -4 10 -6
-3 -8 -17 -4 -31 3 -14 1 -31 -5 -39 -7 -7 -9 -18 -5 -25 6 -8 10 -7 16 2 7
11 9 9 9 -7 0 -18 -6 -20 -71 -21 -55 -1 -71 2 -76 14 -3 8 0 19 8 24 8 5 9 9
3 9 -19 0 -23 49 -5 60 13 8 14 9 1 10 -12 0 -11 3 3 11 9 5 17 15 17 22 -1 7
-14 -4 -30 -22 -22 -26 -26 -37 -17 -43 8 -5 8 -8 1 -8 -7 0 -15 -7 -18 -16
-3 -8 -2 -13 3 -10 5 3 9 -6 8 -22 0 -57 2 -65 17 -53 19 16 106 11 106 -6 0
-7 4 -13 10 -13 5 0 7 6 4 13 -3 10 6 14 32 15 28 1 35 -2 30 -13 -3 -8 -1
-15 4 -15 6 0 10 8 10 18 0 14 2 14 9 3 8 -12 12 -12 26 2 22 22 27 57 12 76
-9 12 -9 13 1 7 6 -4 12 -2 12 3 0 6 -4 11 -10 11 -5 0 -10 5 -10 11 0 5 6 7
13 4 6 -4 2 2 -10 13 -12 11 -19 22 -16 26 3 3 -3 9 -13 13 -10 3 -22 10 -25
15 -3 5 -14 10 -25 12 -10 3 -26 7 -35 10 -8 4 -18 4 -21 1z"/>
</g>
</svg>
